:FULLY-SPECIFIED
:FORCE-ALL-JOINTS-BE-3DOF
:DEGREES
612
root -4.43777 15.5938 -40.5205 -5.13943 -74.4703 12.3072
lfemur -5.54185 13.1656 -16.149
ltibia 42.5931 -0 0
lfoot -22.7386 31.0843 0.177712
ltoes -24.317 0 0
rfemur -43.2292 -32.3048 17.7345
rtibia 79.5456 -0 0
rfoot -14.4581 -18.0419 0.0796611
rtoes -2.98386 0 0
lowerback 10.3691 5.02182 -7.05533
upperback -2.76605 5.59525 -1.51087
thorax -9.32975 3.03691 1.27592
lowerneck 1.51011 -11.0464 -12.1268
upperneck -1.03044 -14.9938 11.79
head 1.2401 -7.53403 5.11418
lclavicle -6.31141e-14 1.98785e-15 0
lhumerus -75.7582 -22.8543 105.905
lradius 103.055 -0 0
lwrist 58.3948 0 0
lhand 8.26955 58.2428 -0.111562
lfingers 7.12502 -0 0
lthumb 33.4867 85.1602 -0.0998199
rclavicle -6.31141e-14 1.98785e-15 0
rhumerus 26.5661 17.029 -45.9921
rradius 95.6921 -0 0
rwrist -27.2822 0 0
rhand -25.9967 -36.4212 -0.354321
rfingers 7.12502 -0 0
rthumb 0.564629 -66.5067 -0.378404
613
root -4.37684 15.6191 -40.4796 -4.59655 -74.7686 11.7892
lfemur -6.24958 13.2159 -16.3215
ltibia 42.9316 -0 0
lfoot -22.5835 30.8657 0.139109
ltoes -24.3107 0 0
rfemur -42.6876 -32.4247 17.9937
rtibia 79.5758 -0 0
rfoot -14.7162 -18.5575 0.0570832
rtoes -2.98762 0 0
lowerback 10.3363 5.01794 -6.99216
upperback -2.80158 5.60136 -1.49675
thorax -9.34639 3.03732 1.25642
lowerneck 1.43406 -10.9689 -12.0727
upperneck -0.923047 -14.8886 11.772
head 1.27155 -7.47946 5.10017
lclavicle -6.31141e-14 1.98785e-15 0
lhumerus -75.0199 -23.1228 105.778
lradius 102.884 -0 0
lwrist 57.8778 0 0
lhand 8.15708 57.9486 -0.0864246
lfingers 7.12502 -0 0
lthumb 33.3788 84.8831 -0.0776883
rclavicle -6.31141e-14 1.98785e-15 0
rhumerus 26.7755 17.0885 -46.1872
rradius 97.0529 -0 0
rwrist -28.0869 0 0
rhand -25.9529 -36.1335 -0.278412
rfingers 7.12502 -0 0
rthumb 0.603513 -66.1986 -0.297776
614
root -4.31591 15.6445 -40.4388 -4.01193 -75.0753 11.2213
lfemur -7.00073 13.2575 -16.4827
ltibia 43.2971 -0 0
lfoot -22.4169 30.61 0.0965755
ltoes -24.284 0 0
rfemur -42.134 -32.5147 18.2362
rtibia 79.5543 -0 0
rfoot -14.9691 -19.0496 0.0360011
rtoes -3.0222 0 0
lowerback 10.3157 5.01063 -6.91098
upperback -2.83243 5.60512 -1.47411
thorax -9.36401 3.03567 1.23602
lowerneck 1.35995 -10.8844 -12.0113
upperneck -0.823797 -14.7735 11.7448
head 1.2985 -7.41995 5.08351
lclavicle -6.31141e-14 1.98785e-15 0
lhumerus -74.1804 -23.4145 105.629
lradius 102.692 -0 0
lwrist 57.3016 0 0
lhand 8.04484 57.6243 -0.0594459
lfingers 7.12502 -0 0
lthumb 33.2713 84.5762 -0.0536791
rclavicle -6.31141e-14 1.98785e-15 0
rhumerus 26.968 17.1574 -46.3951
rradius 98.3151 -0 0
rwrist -28.8473 0 0
rhand -25.8479 -35.8289 -0.193911
rfingers 7.12502 -0 0
rthumb 0.701262 -65.8693 -0.207692
615
root -4.25497 15.6698 -40.3979 -3.3811 -75.3904 10.5987
lfemur -7.7967 13.2903 -16.632
ltibia 43.6903 -0 0
lfoot -22.2385 30.3154 0.0501729
ltoes -24.2356 0 0
rfemur -41.5683 -32.5729 18.4614
rtibia 79.4786 -0 0
rfoot -15.2164 -19.5169 0.0168309
rtoes -3.08937 0 0
lowerback 10.3076 4.99972 -6.81091
upperback -2.85836 5.60648 -1.44256
thorax -9.38265 3.0319 1.21464
lowerneck 1.28809 -10.7928 -11.942
upperneck -0.733452 -14.6482 11.7078
head 1.32059 -7.35531 5.0641
lclavicle -6.31141e-14 1.98785e-15 0
lhumerus -73.2348 -23.73 105.456
lradius 102.479 -0 0
lwrist 56.6635 0 0
lhand 7.93333 57.2688 -0.0306354
lfingers 7.12502 -0 0
lthumb 33.1644 84.2385 -0.027786
rclavicle -6.31141e-14 1.98785e-15 0
rhumerus 27.1426 17.2364 -46.6159
rradius 99.4725 -0 0
rwrist -29.5605 0 0
rhand -25.6782 -35.5071 -0.101011
rfingers 7.12502 -0 0
rthumb 0.861002 -65.5181 -0.108336
616
root -4.19404 15.6951 -40.3571 357.301 -75.7136 369.916
lfemur -8.63886 13.314 -16.7685
ltibia 44.112 0 0
lfoot -22.0479 29.9806 0
ltoes -24.1644 0 0
rfemur -40.9905 -32.5974 18.6687
rtibia 79.3461 0 0
rfoot -15.4578 -19.9581 0
rtoes -3.19088 0 0
lowerback 10.3128 4.98507 -6.69108
upperback -2.87916 5.60538 -1.40172
thorax -9.40235 3.02593 1.1922
lowerneck 1.21875 -10.6936 -11.8647
upperneck -0.652777 -14.5121 11.6607
head 1.3375 -7.28534 5.04183
lclavicle -6.31141e-14 1.98785e-15 0
lhumerus -72.178 -24.0693 105.256
lradius 102.244 0 0
lwrist 55.9607 0 0
lhand 7.82303 56.8809 0
lfingers 7.12502 0 0
lthumb 33.0588 83.8687 0
rclavicle -6.31141e-14 1.98785e-15 0
rhumerus 27.2987 17.326 -46.8499
rradius 100.519 0 0
rwrist -30.2236 0 0
rhand -25.4408 -35.1675 0
rfingers 7.12502 0 0
rthumb 1.08587 -65.1445 0
617
root -4.25538 15.6883 -40.337 -1.94417 -76.0466 9.14938
lfemur -9.54956 13.3272 -16.8993
ltibia 44.5778 -0 0
lfoot -21.8389 29.5966 -0.0548203
ltoes -24.0727 0 0
rfemur -40.3926 -32.5899 18.8695
rtibia 79.1544 -0 0
rfoot -15.6985 -20.3814 -0.0142917
rtoes -3.32499 0 0
lowerback 10.3332 4.96585 -6.54969
upperback -2.89487 5.60102 -1.35059
thorax -9.42418 3.01728 1.16888
lowerneck 1.15042 -10.5863 -11.7795
upperneck -0.578057 -14.3646 11.6034
head 1.35028 -7.20965 5.01654
lclavicle -3.66121e-15 -3.6595e-14 0
lhumerus -70.9982 -24.449 105.029
lradius 102.002 -0 0
lwrist 55.2017 0 0
lhand 7.71515 56.4455 0.0319912
lfingers 7.12502 -0 0
lthumb 32.9556 83.4524 0.0293247
rclavicle -3.66121e-15 -3.6595e-14 0
rhumerus 27.4626 17.415 -47.1014
rradius 101.477 -0 0
rwrist -30.8455 0 0
rhand -25.1241 -34.7864 0.113748
rfingers 7.12502 -0 0
rthumb 1.38673 -64.7228 0.122252
